ply
format ascii 1.0
comment mesh2rdm output
element vertex 36
property float x
property float y
property float z
element face 12
property list uchar int vertex_indices
end_header
400.000000 -400.000000 -400.000000
400.000000 400.000000 -400.000000
-400.000000 -400.000000 -400.000000
-400.000000 -400.000000 -400.000000
400.000000 400.000000 -400.000000
-400.000000 400.000000 -400.000000
-400.000000 -400.000000 400.000000
400.000000 -400.000000 400.000000
-400.000000 -400.000000 -400.000000
-400.000000 -400.000000 -400.000000
400.000000 -400.000000 400.000000
400.000000 -400.000000 -400.000000
-400.000000 400.000000 -400.000000
-400.000000 400.000000 400.000000
-400.000000 -400.000000 -400.000000
-400.000000 -400.000000 -400.000000
-400.000000 400.000000 400.000000
-400.000000 -400.000000 400.000000
400.000000 -400.000000 400.000000
400.000000 400.000000 400.000000
400.000000 -400.000000 -400.000000
400.000000 -400.000000 -400.000000
400.000000 400.000000 400.000000
400.000000 400.000000 -400.000000
400.000000 400.000000 -400.000000
400.000000 400.000000 400.000000
-400.000000 400.000000 -400.000000
-400.000000 400.000000 -400.000000
400.000000 400.000000 400.000000
-400.000000 400.000000 400.000000
-400.000000 400.000000 400.000000
400.000000 400.000000 400.000000
-400.000000 -400.000000 400.000000
-400.000000 -400.000000 400.000000
400.000000 400.000000 400.000000
400.000000 -400.000000 400.000000
3 2 1 0
3 5 4 3
3 8 7 6
3 11 10 9
3 14 13 12
3 17 16 15
3 20 19 18
3 23 22 21
3 26 25 24
3 29 28 27
3 32 31 30
3 35 34 33
