ply
format ascii 1.0
comment mesh2rdm output
element vertex 1014
property float x
property float y
property float z
element face 338
property list uchar int vertex_indices
end_header
675.000000 100.000000 2000.000000
675.000000 100.000000 1879.999878
1325.000000 100.000000 2000.000000
1325.000000 100.000000 2000.000000
675.000000 100.000000 1879.999878
1325.000000 100.000000 1879.999878
1325.000000 100.000000 -2000.000000
1325.000000 100.000000 -1879.999878
675.000000 100.000000 -2000.000000
675.000000 100.000000 -2000.000000
1325.000000 100.000000 -1879.999878
675.000000 100.000000 -1879.999878
-1325.000000 100.000000 2000.000000
-1325.000000 100.000000 1879.999878
-675.000000 100.000000 2000.000000
-675.000000 100.000000 2000.000000
-1325.000000 100.000000 1879.999878
-675.000000 100.000000 1879.999878
-675.000000 100.000000 -2000.000000
-675.000000 100.000000 -1879.999878
-1325.000000 100.000000 -2000.000000
-1325.000000 100.000000 -2000.000000
-675.000000 100.000000 -1879.999878
-1325.000000 100.000000 -1879.999878
-1929.999878 100.000000 10.000000
-1979.999878 100.000000 10.000000
-1929.999878 100.000000 -10.000000
-1929.999878 100.000000 -10.000000
-1979.999878 100.000000 10.000000
-1979.999878 100.000000 -10.000000
-1979.999878 100.000000 10.000000
-2000.000000 100.000000 -10.000000
-1979.999878 100.000000 -10.000000
-1979.999878 100.000000 -10.000000
-2000.000000 100.000000 -10.000000
-1979.999878 100.000000 -60.000004
-1979.999878 100.000000 -60.000004
-2000.000000 100.000000 -10.000000
-2000.000000 100.000000 -60.000004
-2000.000000 100.000000 -10.000000
-1979.999878 100.000000 10.000000
-2000.000000 100.000000 10.000000
-1979.999878 100.000000 10.000000
-2000.000000 100.000000 60.000004
-2000.000000 100.000000 10.000000
-2000.000000 100.000000 60.000004
-1979.999878 100.000000 10.000000
-1979.999878 100.000000 60.000004
-490.000000 100.000000 -560.000000
-510.000000 100.000000 -510.000000
-510.000000 100.000000 -560.000000
-510.000000 100.000000 -510.000000
-490.000000 100.000000 -560.000000
-490.000000 100.000000 -510.000000
-510.000000 100.000000 -510.000000
-490.000000 100.000000 -510.000000
-490.000000 100.000000 -490.000000
-490.000000 100.000000 -490.000000
-490.000000 100.000000 -510.000000
-440.000000 100.000000 -510.000000
-490.000000 100.000000 -490.000000
-440.000000 100.000000 -510.000000
-440.000000 100.000000 -490.000000
-490.000000 100.000000 -490.000000
-510.000000 100.000000 -490.000000
-510.000000 100.000000 -510.000000
-510.000000 100.000000 -490.000000
-490.000000 100.000000 -490.000000
-510.000000 100.000000 -440.000000
-510.000000 100.000000 -440.000000
-490.000000 100.000000 -490.000000
-490.000000 100.000000 -440.000000
-510.000000 100.000000 -490.000000
-560.000000 100.000000 -510.000000
-510.000000 100.000000 -510.000000
-560.000000 100.000000 -510.000000
-510.000000 100.000000 -490.000000
-560.000000 100.000000 -490.000000
-490.000000 100.000000 -1560.000000
-510.000000 100.000000 -1510.000000
-510.000000 100.000000 -1560.000000
-510.000000 100.000000 -1510.000000
-490.000000 100.000000 -1560.000000
-490.000000 100.000000 -1510.000000
-510.000000 100.000000 -1510.000000
-490.000000 100.000000 -1510.000000
-490.000000 100.000000 -1490.000000
-490.000000 100.000000 -1490.000000
-490.000000 100.000000 -1510.000000
-440.000000 100.000000 -1510.000000
-490.000000 100.000000 -1490.000000
-440.000000 100.000000 -1510.000000
-440.000000 100.000000 -1490.000000
-490.000000 100.000000 -1490.000000
-510.000000 100.000000 -1490.000000
-510.000000 100.000000 -1510.000000
-510.000000 100.000000 -1490.000000
-490.000000 100.000000 -1490.000000
-510.000000 100.000000 -1440.000000
-510.000000 100.000000 -1440.000000
-490.000000 100.000000 -1490.000000
-490.000000 100.000000 -1440.000000
-510.000000 100.000000 -1490.000000
-560.000000 100.000000 -1510.000000
-510.000000 100.000000 -1510.000000
-560.000000 100.000000 -1510.000000
-510.000000 100.000000 -1490.000000
-560.000000 100.000000 -1490.000000
510.000000 100.000000 -1560.000000
490.000000 100.000000 -1510.000000
490.000000 100.000000 -1560.000000
490.000000 100.000000 -1510.000000
510.000000 100.000000 -1560.000000
510.000000 100.000000 -1510.000000
490.000000 100.000000 -1510.000000
510.000000 100.000000 -1510.000000
510.000000 100.000000 -1490.000000
510.000000 100.000000 -1490.000000
510.000000 100.000000 -1510.000000
560.000000 100.000000 -1510.000000
510.000000 100.000000 -1490.000000
560.000000 100.000000 -1510.000000
560.000000 100.000000 -1490.000000
510.000000 100.000000 -1490.000000
490.000000 100.000000 -1490.000000
490.000000 100.000000 -1510.000000
490.000000 100.000000 -1490.000000
510.000000 100.000000 -1490.000000
490.000000 100.000000 -1440.000000
490.000000 100.000000 -1440.000000
510.000000 100.000000 -1490.000000
510.000000 100.000000 -1440.000000
490.000000 100.000000 -1490.000000
440.000000 100.000000 -1510.000000
490.000000 100.000000 -1510.000000
440.000000 100.000000 -1510.000000
490.000000 100.000000 -1490.000000
440.000000 100.000000 -1490.000000
510.000000 100.000000 -560.000000
490.000000 100.000000 -510.000000
490.000000 100.000000 -560.000000
490.000000 100.000000 -510.000000
510.000000 100.000000 -560.000000
510.000000 100.000000 -510.000000
490.000000 100.000000 -510.000000
510.000000 100.000000 -510.000000
510.000000 100.000000 -490.000000
510.000000 100.000000 -490.000000
510.000000 100.000000 -510.000000
560.000000 100.000000 -510.000000
510.000000 100.000000 -490.000000
560.000000 100.000000 -510.000000
560.000000 100.000000 -490.000000
510.000000 100.000000 -490.000000
490.000000 100.000000 -490.000000
490.000000 100.000000 -510.000000
490.000000 100.000000 -490.000000
510.000000 100.000000 -490.000000
490.000000 100.000000 -440.000000
490.000000 100.000000 -440.000000
510.000000 100.000000 -490.000000
510.000000 100.000000 -440.000000
490.000000 100.000000 -490.000000
440.000000 100.000000 -510.000000
490.000000 100.000000 -510.000000
440.000000 100.000000 -510.000000
490.000000 100.000000 -490.000000
440.000000 100.000000 -490.000000
10.000000 100.000000 -1060.000000
-10.000000 100.000000 -1010.000061
-10.000000 100.000000 -1060.000000
-10.000000 100.000000 -1010.000061
10.000000 100.000000 -1060.000000
10.000000 100.000000 -1010.000061
-10.000000 100.000000 -1010.000061
10.000000 100.000000 -1010.000061
10.000000 100.000000 -989.999939
10.000000 100.000000 -989.999939
10.000000 100.000000 -1010.000061
60.000004 100.000000 -1010.000061
10.000000 100.000000 -989.999939
60.000004 100.000000 -1010.000061
60.000004 100.000000 -989.999939
10.000000 100.000000 -989.999939
-10.000000 100.000000 -989.999939
-10.000000 100.000000 -1010.000061
-10.000000 100.000000 -989.999939
10.000000 100.000000 -989.999939
-10.000000 100.000000 -939.999939
-10.000000 100.000000 -939.999939
10.000000 100.000000 -989.999939
10.000000 100.000000 -939.999939
-10.000000 100.000000 -989.999939
-60.000004 100.000000 -1010.000061
-10.000000 100.000000 -1010.000061
-60.000004 100.000000 -1010.000061
-10.000000 100.000000 -989.999939
-60.000004 100.000000 -989.999939
1929.999878 100.000000 -10.000000
1979.999878 100.000000 -10.000000
1929.999878 100.000000 10.000000
1929.999878 100.000000 10.000000
1979.999878 100.000000 -10.000000
1979.999878 100.000000 10.000000
1979.999878 100.000000 -10.000000
2000.000000 100.000000 10.000000
1979.999878 100.000000 10.000000
1979.999878 100.000000 10.000000
2000.000000 100.000000 10.000000
1979.999878 100.000000 60.000004
1979.999878 100.000000 60.000004
2000.000000 100.000000 10.000000
2000.000000 100.000000 60.000004
2000.000000 100.000000 10.000000
1979.999878 100.000000 -10.000000
2000.000000 100.000000 -10.000000
1979.999878 100.000000 -10.000000
2000.000000 100.000000 -60.000004
2000.000000 100.000000 -10.000000
2000.000000 100.000000 -60.000004
1979.999878 100.000000 -10.000000
1979.999878 100.000000 -60.000004
-490.000000 100.000000 1440.000000
-510.000000 100.000000 1490.000000
-510.000000 100.000000 1440.000000
-510.000000 100.000000 1490.000000
-490.000000 100.000000 1440.000000
-490.000000 100.000000 1490.000000
-510.000000 100.000000 1490.000000
-490.000000 100.000000 1490.000000
-490.000000 100.000000 1510.000000
-490.000000 100.000000 1510.000000
-490.000000 100.000000 1490.000000
-440.000000 100.000000 1490.000000
-490.000000 100.000000 1510.000000
-440.000000 100.000000 1490.000000
-440.000000 100.000000 1510.000000
-490.000000 100.000000 1510.000000
-510.000000 100.000000 1510.000000
-510.000000 100.000000 1490.000000
-510.000000 100.000000 1510.000000
-490.000000 100.000000 1510.000000
-510.000000 100.000000 1560.000000
-510.000000 100.000000 1560.000000
-490.000000 100.000000 1510.000000
-490.000000 100.000000 1560.000000
-510.000000 100.000000 1510.000000
-560.000000 100.000000 1490.000000
-510.000000 100.000000 1490.000000
-560.000000 100.000000 1490.000000
-510.000000 100.000000 1510.000000
-560.000000 100.000000 1510.000000
-490.000000 100.000000 440.000000
-510.000000 100.000000 490.000000
-510.000000 100.000000 440.000000
-510.000000 100.000000 490.000000
-490.000000 100.000000 440.000000
-490.000000 100.000000 490.000000
-510.000000 100.000000 490.000000
-490.000000 100.000000 490.000000
-490.000000 100.000000 510.000000
-490.000000 100.000000 510.000000
-490.000000 100.000000 490.000000
-440.000000 100.000000 490.000000
-490.000000 100.000000 510.000000
-440.000000 100.000000 490.000000
-440.000000 100.000000 510.000000
-490.000000 100.000000 510.000000
-510.000000 100.000000 510.000000
-510.000000 100.000000 490.000000
-510.000000 100.000000 510.000000
-490.000000 100.000000 510.000000
-510.000000 100.000000 560.000000
-510.000000 100.000000 560.000000
-490.000000 100.000000 510.000000
-490.000000 100.000000 560.000000
-510.000000 100.000000 510.000000
-560.000000 100.000000 490.000000
-510.000000 100.000000 490.000000
-560.000000 100.000000 490.000000
-510.000000 100.000000 510.000000
-560.000000 100.000000 510.000000
510.000000 100.000000 440.000000
490.000000 100.000000 490.000000
490.000000 100.000000 440.000000
490.000000 100.000000 490.000000
510.000000 100.000000 440.000000
510.000000 100.000000 490.000000
490.000000 100.000000 490.000000
510.000000 100.000000 490.000000
510.000000 100.000000 510.000000
510.000000 100.000000 510.000000
510.000000 100.000000 490.000000
560.000000 100.000000 490.000000
510.000000 100.000000 510.000000
560.000000 100.000000 490.000000
560.000000 100.000000 510.000000
510.000000 100.000000 510.000000
490.000000 100.000000 510.000000
490.000000 100.000000 490.000000
490.000000 100.000000 510.000000
510.000000 100.000000 510.000000
490.000000 100.000000 560.000000
490.000000 100.000000 560.000000
510.000000 100.000000 510.000000
510.000000 100.000000 560.000000
490.000000 100.000000 510.000000
440.000000 100.000000 490.000000
490.000000 100.000000 490.000000
440.000000 100.000000 490.000000
490.000000 100.000000 510.000000
440.000000 100.000000 510.000000
510.000000 100.000000 1440.000000
490.000000 100.000000 1490.000000
490.000000 100.000000 1440.000000
490.000000 100.000000 1490.000000
510.000000 100.000000 1440.000000
510.000000 100.000000 1490.000000
490.000000 100.000000 1490.000000
510.000000 100.000000 1490.000000
510.000000 100.000000 1510.000000
510.000000 100.000000 1510.000000
510.000000 100.000000 1490.000000
560.000000 100.000000 1490.000000
510.000000 100.000000 1510.000000
560.000000 100.000000 1490.000000
560.000000 100.000000 1510.000000
510.000000 100.000000 1510.000000
490.000000 100.000000 1510.000000
490.000000 100.000000 1490.000000
490.000000 100.000000 1510.000000
510.000000 100.000000 1510.000000
490.000000 100.000000 1560.000000
490.000000 100.000000 1560.000000
510.000000 100.000000 1510.000000
510.000000 100.000000 1560.000000
490.000000 100.000000 1510.000000
440.000000 100.000000 1490.000000
490.000000 100.000000 1490.000000
440.000000 100.000000 1490.000000
490.000000 100.000000 1510.000000
440.000000 100.000000 1510.000000
10.000000 100.000000 939.999939
-10.000000 100.000000 989.999939
-10.000000 100.000000 939.999939
-10.000000 100.000000 989.999939
10.000000 100.000000 939.999939
10.000000 100.000000 989.999939
-10.000000 100.000000 989.999939
10.000000 100.000000 989.999939
10.000000 100.000000 1010.000061
10.000000 100.000000 1010.000061
10.000000 100.000000 989.999939
60.000004 100.000000 989.999939
10.000000 100.000000 1010.000061
60.000004 100.000000 989.999939
60.000004 100.000000 1010.000061
10.000000 100.000000 1010.000061
-10.000000 100.000000 1010.000061
-10.000000 100.000000 989.999939
-10.000000 100.000000 1010.000061
10.000000 100.000000 1010.000061
-10.000000 100.000000 1060.000000
-10.000000 100.000000 1060.000000
10.000000 100.000000 1010.000061
10.000000 100.000000 1060.000000
-10.000000 100.000000 1010.000061
-60.000004 100.000000 989.999939
-10.000000 100.000000 989.999939
-60.000004 100.000000 989.999939
-10.000000 100.000000 1010.000061
-60.000004 100.000000 1010.000061
-1490.000000 100.000000 -560.000000
-1510.000000 100.000000 -510.000000
-1510.000000 100.000000 -560.000000
-1510.000000 100.000000 -510.000000
-1490.000000 100.000000 -560.000000
-1490.000000 100.000000 -510.000000
-1510.000000 100.000000 -510.000000
-1490.000000 100.000000 -510.000000
-1490.000000 100.000000 -490.000000
-1490.000000 100.000000 -490.000000
-1490.000000 100.000000 -510.000000
-1440.000000 100.000000 -510.000000
-1490.000000 100.000000 -490.000000
-1440.000000 100.000000 -510.000000
-1440.000000 100.000000 -490.000000
-1490.000000 100.000000 -490.000000
-1510.000000 100.000000 -490.000000
-1510.000000 100.000000 -510.000000
-1510.000000 100.000000 -490.000000
-1490.000000 100.000000 -490.000000
-1510.000000 100.000000 -440.000000
-1510.000000 100.000000 -440.000000
-1490.000000 100.000000 -490.000000
-1490.000000 100.000000 -440.000000
-1510.000000 100.000000 -490.000000
-1560.000000 100.000000 -510.000000
-1510.000000 100.000000 -510.000000
-1560.000000 100.000000 -510.000000
-1510.000000 100.000000 -490.000000
-1560.000000 100.000000 -490.000000
-1490.000000 100.000000 -1560.000000
-1510.000000 100.000000 -1510.000000
-1510.000000 100.000000 -1560.000000
-1510.000000 100.000000 -1510.000000
-1490.000000 100.000000 -1560.000000
-1490.000000 100.000000 -1510.000000
-1510.000000 100.000000 -1510.000000
-1490.000000 100.000000 -1510.000000
-1490.000000 100.000000 -1490.000000
-1490.000000 100.000000 -1490.000000
-1490.000000 100.000000 -1510.000000
-1440.000000 100.000000 -1510.000000
-1490.000000 100.000000 -1490.000000
-1440.000000 100.000000 -1510.000000
-1440.000000 100.000000 -1490.000000
-1490.000000 100.000000 -1490.000000
-1510.000000 100.000000 -1490.000000
-1510.000000 100.000000 -1510.000000
-1510.000000 100.000000 -1490.000000
-1490.000000 100.000000 -1490.000000
-1510.000000 100.000000 -1440.000000
-1510.000000 100.000000 -1440.000000
-1490.000000 100.000000 -1490.000000
-1490.000000 100.000000 -1440.000000
-1510.000000 100.000000 -1490.000000
-1560.000000 100.000000 -1510.000000
-1510.000000 100.000000 -1510.000000
-1560.000000 100.000000 -1510.000000
-1510.000000 100.000000 -1490.000000
-1560.000000 100.000000 -1490.000000
-1490.000000 100.000000 1440.000000
-1510.000000 100.000000 1490.000000
-1510.000000 100.000000 1440.000000
-1510.000000 100.000000 1490.000000
-1490.000000 100.000000 1440.000000
-1490.000000 100.000000 1490.000000
-1510.000000 100.000000 1490.000000
-1490.000000 100.000000 1490.000000
-1490.000000 100.000000 1510.000000
-1490.000000 100.000000 1510.000000
-1490.000000 100.000000 1490.000000
-1440.000000 100.000000 1490.000000
-1490.000000 100.000000 1510.000000
-1440.000000 100.000000 1490.000000
-1440.000000 100.000000 1510.000000
-1490.000000 100.000000 1510.000000
-1510.000000 100.000000 1510.000000
-1510.000000 100.000000 1490.000000
-1510.000000 100.000000 1510.000000
-1490.000000 100.000000 1510.000000
-1510.000000 100.000000 1560.000000
-1510.000000 100.000000 1560.000000
-1490.000000 100.000000 1510.000000
-1490.000000 100.000000 1560.000000
-1510.000000 100.000000 1510.000000
-1560.000000 100.000000 1490.000000
-1510.000000 100.000000 1490.000000
-1560.000000 100.000000 1490.000000
-1510.000000 100.000000 1510.000000
-1560.000000 100.000000 1510.000000
-1490.000000 100.000000 440.000000
-1510.000000 100.000000 490.000000
-1510.000000 100.000000 440.000000
-1510.000000 100.000000 490.000000
-1490.000000 100.000000 440.000000
-1490.000000 100.000000 490.000000
-1510.000000 100.000000 490.000000
-1490.000000 100.000000 490.000000
-1490.000000 100.000000 510.000000
-1490.000000 100.000000 510.000000
-1490.000000 100.000000 490.000000
-1440.000000 100.000000 490.000000
-1490.000000 100.000000 510.000000
-1440.000000 100.000000 490.000000
-1440.000000 100.000000 510.000000
-1490.000000 100.000000 510.000000
-1510.000000 100.000000 510.000000
-1510.000000 100.000000 490.000000
-1510.000000 100.000000 510.000000
-1490.000000 100.000000 510.000000
-1510.000000 100.000000 560.000000
-1510.000000 100.000000 560.000000
-1490.000000 100.000000 510.000000
-1490.000000 100.000000 560.000000
-1510.000000 100.000000 510.000000
-1560.000000 100.000000 490.000000
-1510.000000 100.000000 490.000000
-1560.000000 100.000000 490.000000
-1510.000000 100.000000 510.000000
-1560.000000 100.000000 510.000000
1510.000000 100.000000 -560.000000
1490.000000 100.000000 -510.000000
1490.000000 100.000000 -560.000000
1490.000000 100.000000 -510.000000
1510.000000 100.000000 -560.000000
1510.000000 100.000000 -510.000000
1490.000000 100.000000 -510.000000
1510.000000 100.000000 -510.000000
1510.000000 100.000000 -490.000000
1510.000000 100.000000 -490.000000
1510.000000 100.000000 -510.000000
1560.000000 100.000000 -510.000000
1510.000000 100.000000 -490.000000
1560.000000 100.000000 -510.000000
1560.000000 100.000000 -490.000000
1510.000000 100.000000 -490.000000
1490.000000 100.000000 -490.000000
1490.000000 100.000000 -510.000000
1490.000000 100.000000 -490.000000
1510.000000 100.000000 -490.000000
1490.000000 100.000000 -440.000000
1490.000000 100.000000 -440.000000
1510.000000 100.000000 -490.000000
1510.000000 100.000000 -440.000000
1490.000000 100.000000 -490.000000
1440.000000 100.000000 -510.000000
1490.000000 100.000000 -510.000000
1440.000000 100.000000 -510.000000
1490.000000 100.000000 -490.000000
1440.000000 100.000000 -490.000000
1510.000000 100.000000 -1560.000000
1490.000000 100.000000 -1510.000000
1490.000000 100.000000 -1560.000000
1490.000000 100.000000 -1510.000000
1510.000000 100.000000 -1560.000000
1510.000000 100.000000 -1510.000000
1490.000000 100.000000 -1510.000000
1510.000000 100.000000 -1510.000000
1510.000000 100.000000 -1490.000000
1510.000000 100.000000 -1490.000000
1510.000000 100.000000 -1510.000000
1560.000000 100.000000 -1510.000000
1510.000000 100.000000 -1490.000000
1560.000000 100.000000 -1510.000000
1560.000000 100.000000 -1490.000000
1510.000000 100.000000 -1490.000000
1490.000000 100.000000 -1490.000000
1490.000000 100.000000 -1510.000000
1490.000000 100.000000 -1490.000000
1510.000000 100.000000 -1490.000000
1490.000000 100.000000 -1440.000000
1490.000000 100.000000 -1440.000000
1510.000000 100.000000 -1490.000000
1510.000000 100.000000 -1440.000000
1490.000000 100.000000 -1490.000000
1440.000000 100.000000 -1510.000000
1490.000000 100.000000 -1510.000000
1440.000000 100.000000 -1510.000000
1490.000000 100.000000 -1490.000000
1440.000000 100.000000 -1490.000000
1510.000000 100.000000 1440.000000
1490.000000 100.000000 1490.000000
1490.000000 100.000000 1440.000000
1490.000000 100.000000 1490.000000
1510.000000 100.000000 1440.000000
1510.000000 100.000000 1490.000000
1490.000000 100.000000 1490.000000
1510.000000 100.000000 1490.000000
1510.000000 100.000000 1510.000000
1510.000000 100.000000 1510.000000
1510.000000 100.000000 1490.000000
1560.000000 100.000000 1490.000000
1510.000000 100.000000 1510.000000
1560.000000 100.000000 1490.000000
1560.000000 100.000000 1510.000000
1510.000000 100.000000 1510.000000
1490.000000 100.000000 1510.000000
1490.000000 100.000000 1490.000000
1490.000000 100.000000 1510.000000
1510.000000 100.000000 1510.000000
1490.000000 100.000000 1560.000000
1490.000000 100.000000 1560.000000
1510.000000 100.000000 1510.000000
1510.000000 100.000000 1560.000000
1490.000000 100.000000 1510.000000
1440.000000 100.000000 1490.000000
1490.000000 100.000000 1490.000000
1440.000000 100.000000 1490.000000
1490.000000 100.000000 1510.000000
1440.000000 100.000000 1510.000000
1510.000000 100.000000 440.000000
1490.000000 100.000000 490.000000
1490.000000 100.000000 440.000000
1490.000000 100.000000 490.000000
1510.000000 100.000000 440.000000
1510.000000 100.000000 490.000000
1490.000000 100.000000 490.000000
1510.000000 100.000000 490.000000
1510.000000 100.000000 510.000000
1510.000000 100.000000 510.000000
1510.000000 100.000000 490.000000
1560.000000 100.000000 490.000000
1510.000000 100.000000 510.000000
1560.000000 100.000000 490.000000
1560.000000 100.000000 510.000000
1510.000000 100.000000 510.000000
1490.000000 100.000000 510.000000
1490.000000 100.000000 490.000000
1490.000000 100.000000 510.000000
1510.000000 100.000000 510.000000
1490.000000 100.000000 560.000000
1490.000000 100.000000 560.000000
1510.000000 100.000000 510.000000
1510.000000 100.000000 560.000000
1490.000000 100.000000 510.000000
1440.000000 100.000000 490.000000
1490.000000 100.000000 490.000000
1440.000000 100.000000 490.000000
1490.000000 100.000000 510.000000
1440.000000 100.000000 510.000000
10.000000 100.000000 -60.000004
-10.000000 100.000000 -10.000000
-10.000000 100.000000 -60.000004
-10.000000 100.000000 -10.000000
10.000000 100.000000 -60.000004
10.000000 100.000000 -10.000000
-10.000000 100.000000 -10.000000
10.000000 100.000000 -10.000000
10.000000 100.000000 10.000000
10.000000 100.000000 10.000000
10.000000 100.000000 -10.000000
60.000004 100.000000 -10.000000
10.000000 100.000000 10.000000
60.000004 100.000000 -10.000000
60.000004 100.000000 10.000000
10.000000 100.000000 10.000000
-10.000000 100.000000 10.000000
-10.000000 100.000000 -10.000000
-10.000000 100.000000 10.000000
10.000000 100.000000 10.000000
-10.000000 100.000000 60.000004
-10.000000 100.000000 60.000004
10.000000 100.000000 10.000000
10.000000 100.000000 60.000004
-10.000000 100.000000 10.000000
-60.000004 100.000000 -10.000000
-10.000000 100.000000 -10.000000
-60.000004 100.000000 -10.000000
-10.000000 100.000000 10.000000
-60.000004 100.000000 10.000000
-989.999939 100.000000 -1060.000000
-1010.000061 100.000000 -1010.000061
-1010.000061 100.000000 -1060.000000
-1010.000061 100.000000 -1010.000061
-989.999939 100.000000 -1060.000000
-989.999939 100.000000 -1010.000061
-1010.000061 100.000000 -1010.000061
-989.999939 100.000000 -1010.000061
-989.999939 100.000000 -989.999939
-989.999939 100.000000 -989.999939
-989.999939 100.000000 -1010.000061
-939.999939 100.000000 -1010.000061
-989.999939 100.000000 -989.999939
-939.999939 100.000000 -1010.000061
-939.999939 100.000000 -989.999939
-989.999939 100.000000 -989.999939
-1010.000061 100.000000 -989.999939
-1010.000061 100.000000 -1010.000061
-1010.000061 100.000000 -989.999939
-989.999939 100.000000 -989.999939
-1010.000061 100.000000 -939.999939
-1010.000061 100.000000 -939.999939
-989.999939 100.000000 -989.999939
-989.999939 100.000000 -939.999939
-1010.000061 100.000000 -989.999939
-1060.000000 100.000000 -1010.000061
-1010.000061 100.000000 -1010.000061
-1060.000000 100.000000 -1010.000061
-1010.000061 100.000000 -989.999939
-1060.000000 100.000000 -989.999939
-989.999939 100.000000 939.999939
-1010.000061 100.000000 989.999939
-1010.000061 100.000000 939.999939
-1010.000061 100.000000 989.999939
-989.999939 100.000000 939.999939
-989.999939 100.000000 989.999939
-1010.000061 100.000000 989.999939
-989.999939 100.000000 989.999939
-989.999939 100.000000 1010.000061
-989.999939 100.000000 1010.000061
-989.999939 100.000000 989.999939
-939.999939 100.000000 989.999939
-989.999939 100.000000 1010.000061
-939.999939 100.000000 989.999939
-939.999939 100.000000 1010.000061
-989.999939 100.000000 1010.000061
-1010.000061 100.000000 1010.000061
-1010.000061 100.000000 989.999939
-1010.000061 100.000000 1010.000061
-989.999939 100.000000 1010.000061
-1010.000061 100.000000 1060.000000
-1010.000061 100.000000 1060.000000
-989.999939 100.000000 1010.000061
-989.999939 100.000000 1060.000000
-1010.000061 100.000000 1010.000061
-1060.000000 100.000000 989.999939
-1010.000061 100.000000 989.999939
-1060.000000 100.000000 989.999939
-1010.000061 100.000000 1010.000061
-1060.000000 100.000000 1010.000061
-989.999939 100.000000 -60.000004
-1010.000061 100.000000 -10.000000
-1010.000061 100.000000 -60.000004
-1010.000061 100.000000 -10.000000
-989.999939 100.000000 -60.000004
-989.999939 100.000000 -10.000000
-1010.000061 100.000000 -10.000000
-989.999939 100.000000 -10.000000
-989.999939 100.000000 10.000000
-989.999939 100.000000 10.000000
-989.999939 100.000000 -10.000000
-939.999939 100.000000 -10.000000
-989.999939 100.000000 10.000000
-939.999939 100.000000 -10.000000
-939.999939 100.000000 10.000000
-989.999939 100.000000 10.000000
-1010.000061 100.000000 10.000000
-1010.000061 100.000000 -10.000000
-1010.000061 100.000000 10.000000
-989.999939 100.000000 10.000000
-1010.000061 100.000000 60.000004
-1010.000061 100.000000 60.000004
-989.999939 100.000000 10.000000
-989.999939 100.000000 60.000004
-1010.000061 100.000000 10.000000
-1060.000000 100.000000 -10.000000
-1010.000061 100.000000 -10.000000
-1060.000000 100.000000 -10.000000
-1010.000061 100.000000 10.000000
-1060.000000 100.000000 10.000000
1010.000061 100.000000 -1060.000000
989.999939 100.000000 -1010.000061
989.999939 100.000000 -1060.000000
989.999939 100.000000 -1010.000061
1010.000061 100.000000 -1060.000000
1010.000061 100.000000 -1010.000061
989.999939 100.000000 -1010.000061
1010.000061 100.000000 -1010.000061
1010.000061 100.000000 -989.999939
1010.000061 100.000000 -989.999939
1010.000061 100.000000 -1010.000061
1060.000000 100.000000 -1010.000061
1010.000061 100.000000 -989.999939
1060.000000 100.000000 -1010.000061
1060.000000 100.000000 -989.999939
1010.000061 100.000000 -989.999939
989.999939 100.000000 -989.999939
989.999939 100.000000 -1010.000061
989.999939 100.000000 -989.999939
1010.000061 100.000000 -989.999939
989.999939 100.000000 -939.999939
989.999939 100.000000 -939.999939
1010.000061 100.000000 -989.999939
1010.000061 100.000000 -939.999939
989.999939 100.000000 -989.999939
939.999939 100.000000 -1010.000061
989.999939 100.000000 -1010.000061
939.999939 100.000000 -1010.000061
989.999939 100.000000 -989.999939
939.999939 100.000000 -989.999939
1010.000061 100.000000 939.999939
989.999939 100.000000 989.999939
989.999939 100.000000 939.999939
989.999939 100.000000 989.999939
1010.000061 100.000000 939.999939
1010.000061 100.000000 989.999939
989.999939 100.000000 989.999939
1010.000061 100.000000 989.999939
1010.000061 100.000000 1010.000061
1010.000061 100.000000 1010.000061
1010.000061 100.000000 989.999939
1060.000000 100.000000 989.999939
1010.000061 100.000000 1010.000061
1060.000000 100.000000 989.999939
1060.000000 100.000000 1010.000061
1010.000061 100.000000 1010.000061
989.999939 100.000000 1010.000061
989.999939 100.000000 989.999939
989.999939 100.000000 1010.000061
1010.000061 100.000000 1010.000061
989.999939 100.000000 1060.000000
989.999939 100.000000 1060.000000
1010.000061 100.000000 1010.000061
1010.000061 100.000000 1060.000000
989.999939 100.000000 1010.000061
939.999939 100.000000 989.999939
989.999939 100.000000 989.999939
939.999939 100.000000 989.999939
989.999939 100.000000 1010.000061
939.999939 100.000000 1010.000061
1010.000061 100.000000 -60.000004
989.999939 100.000000 -10.000000
989.999939 100.000000 -60.000004
989.999939 100.000000 -10.000000
1010.000061 100.000000 -60.000004
1010.000061 100.000000 -10.000000
989.999939 100.000000 -10.000000
1010.000061 100.000000 -10.000000
1010.000061 100.000000 10.000000
1010.000061 100.000000 10.000000
1010.000061 100.000000 -10.000000
1060.000000 100.000000 -10.000000
1010.000061 100.000000 10.000000
1060.000000 100.000000 -10.000000
1060.000000 100.000000 10.000000
1010.000061 100.000000 10.000000
989.999939 100.000000 10.000000
989.999939 100.000000 -10.000000
989.999939 100.000000 10.000000
1010.000061 100.000000 10.000000
989.999939 100.000000 60.000004
989.999939 100.000000 60.000004
1010.000061 100.000000 10.000000
1010.000061 100.000000 60.000004
989.999939 100.000000 10.000000
939.999939 100.000000 -10.000000
989.999939 100.000000 -10.000000
939.999939 100.000000 -10.000000
989.999939 100.000000 10.000000
939.999939 100.000000 10.000000
-1929.999878 100.000000 -989.999939
-1979.999878 100.000000 -989.999939
-1929.999878 100.000000 -1010.000061
-1929.999878 100.000000 -1010.000061
-1979.999878 100.000000 -989.999939
-1979.999878 100.000000 -1010.000061
-1979.999878 100.000000 -989.999939
-2000.000000 100.000000 -1010.000061
-1979.999878 100.000000 -1010.000061
-1979.999878 100.000000 -1010.000061
-2000.000000 100.000000 -1010.000061
-1979.999878 100.000000 -1060.000000
-1979.999878 100.000000 -1060.000000
-2000.000000 100.000000 -1010.000061
-2000.000000 100.000000 -1060.000000
-2000.000000 100.000000 -1010.000061
-1979.999878 100.000000 -989.999939
-2000.000000 100.000000 -989.999939
-1979.999878 100.000000 -989.999939
-2000.000000 100.000000 -939.999939
-2000.000000 100.000000 -989.999939
-2000.000000 100.000000 -939.999939
-1979.999878 100.000000 -989.999939
-1979.999878 100.000000 -939.999939
1929.999878 100.000000 -1010.000061
1979.999878 100.000000 -1010.000061
1929.999878 100.000000 -989.999939
1929.999878 100.000000 -989.999939
1979.999878 100.000000 -1010.000061
1979.999878 100.000000 -989.999939
1979.999878 100.000000 -1010.000061
2000.000000 100.000000 -989.999939
1979.999878 100.000000 -989.999939
1979.999878 100.000000 -989.999939
2000.000000 100.000000 -989.999939
1979.999878 100.000000 -939.999939
1979.999878 100.000000 -939.999939
2000.000000 100.000000 -989.999939
2000.000000 100.000000 -939.999939
2000.000000 100.000000 -989.999939
1979.999878 100.000000 -1010.000061
2000.000000 100.000000 -1010.000061
1979.999878 100.000000 -1010.000061
2000.000000 100.000000 -1060.000000
2000.000000 100.000000 -1010.000061
2000.000000 100.000000 -1060.000000
1979.999878 100.000000 -1010.000061
1979.999878 100.000000 -1060.000000
-1929.999878 100.000000 1010.000061
-1979.999878 100.000000 1010.000061
-1929.999878 100.000000 989.999939
-1929.999878 100.000000 989.999939
-1979.999878 100.000000 1010.000061
-1979.999878 100.000000 989.999939
-1979.999878 100.000000 1010.000061
-2000.000000 100.000000 989.999939
-1979.999878 100.000000 989.999939
-1979.999878 100.000000 989.999939
-2000.000000 100.000000 989.999939
-1979.999878 100.000000 939.999939
-1979.999878 100.000000 939.999939
-2000.000000 100.000000 989.999939
-2000.000000 100.000000 939.999939
-2000.000000 100.000000 989.999939
-1979.999878 100.000000 1010.000061
-2000.000000 100.000000 1010.000061
-1979.999878 100.000000 1010.000061
-2000.000000 100.000000 1060.000000
-2000.000000 100.000000 1010.000061
-2000.000000 100.000000 1060.000000
-1979.999878 100.000000 1010.000061
-1979.999878 100.000000 1060.000000
1929.999878 100.000000 989.999939
1979.999878 100.000000 989.999939
1929.999878 100.000000 1010.000061
1929.999878 100.000000 1010.000061
1979.999878 100.000000 989.999939
1979.999878 100.000000 1010.000061
1979.999878 100.000000 989.999939
2000.000000 100.000000 1010.000061
1979.999878 100.000000 1010.000061
1979.999878 100.000000 1010.000061
2000.000000 100.000000 1010.000061
1979.999878 100.000000 1060.000000
1979.999878 100.000000 1060.000000
2000.000000 100.000000 1010.000061
2000.000000 100.000000 1060.000000
2000.000000 100.000000 1010.000061
1979.999878 100.000000 989.999939
2000.000000 100.000000 989.999939
1979.999878 100.000000 989.999939
2000.000000 100.000000 939.999939
2000.000000 100.000000 989.999939
2000.000000 100.000000 939.999939
1979.999878 100.000000 989.999939
1979.999878 100.000000 939.999939
1970.000122 100.000000 -1879.999878
2000.000000 100.000000 -1300.000000
1970.000122 100.000000 -1300.000000
2000.000000 100.000000 -1300.000000
1970.000122 100.000000 -1879.999878
2000.000000 100.000000 -2000.000000
1970.000122 100.000000 -1879.999878
1400.000000 100.000000 -1879.999878
2000.000000 100.000000 -2000.000000
2000.000000 100.000000 -2000.000000
1400.000000 100.000000 -1879.999878
1400.000000 100.000000 -2000.000000
2000.000000 100.000000 2000.000000
1970.000122 100.000000 1300.000000
2000.000000 100.000000 1300.000000
1970.000122 100.000000 1300.000000
2000.000000 100.000000 2000.000000
1970.000122 100.000000 1879.999878
1970.000122 100.000000 1879.999878
2000.000000 100.000000 2000.000000
1400.000000 100.000000 1879.999878
1400.000000 100.000000 1879.999878
2000.000000 100.000000 2000.000000
1400.000000 100.000000 2000.000000
-1970.000122 100.000000 1879.999878
-2000.000000 100.000000 1300.000000
-1970.000122 100.000000 1300.000000
-2000.000000 100.000000 1300.000000
-1970.000122 100.000000 1879.999878
-2000.000000 100.000000 2000.000000
-1970.000122 100.000000 1879.999878
-1400.000000 100.000000 1879.999878
-2000.000000 100.000000 2000.000000
-2000.000000 100.000000 2000.000000
-1400.000000 100.000000 1879.999878
-1400.000000 100.000000 2000.000000
-2000.000000 100.000000 -1300.000000
-1970.000122 100.000000 -1879.999878
-1970.000122 100.000000 -1300.000000
-1970.000122 100.000000 -1879.999878
-2000.000000 100.000000 -1300.000000
-2000.000000 100.000000 -2000.000000
-1970.000122 100.000000 -1879.999878
-2000.000000 100.000000 -2000.000000
-1400.000000 100.000000 -2000.000000
-1970.000122 100.000000 -1879.999878
-1400.000000 100.000000 -2000.000000
-1400.000000 100.000000 -1879.999878
0.000000 100.000000 1879.999878
600.000000 100.000000 1879.999878
0.000000 100.000000 2000.000000
0.000000 100.000000 2000.000000
600.000000 100.000000 1879.999878
600.000000 100.000000 2000.000000
-600.000000 100.000000 1879.999878
0.000000 100.000000 1879.999878
-600.000000 100.000000 2000.000000
-600.000000 100.000000 2000.000000
0.000000 100.000000 1879.999878
0.000000 100.000000 2000.000000
0.000000 100.000000 -2000.000000
600.000000 100.000000 -2000.000000
0.000000 100.000000 -1879.999878
0.000000 100.000000 -1879.999878
600.000000 100.000000 -2000.000000
600.000000 100.000000 -1879.999878
-600.000000 100.000000 -2000.000000
0.000000 100.000000 -2000.000000
-600.000000 100.000000 -1879.999878
-600.000000 100.000000 -1879.999878
0.000000 100.000000 -2000.000000
0.000000 100.000000 -1879.999878
-2000.000000 100.000000 700.000000
-2000.000000 100.000000 300.000000
-1970.000122 100.000000 700.000000
-1970.000122 100.000000 700.000000
-2000.000000 100.000000 300.000000
-1970.000122 100.000000 300.000000
-2000.000000 100.000000 -300.000000
-2000.000000 100.000000 -700.000000
-1970.000122 100.000000 -300.000000
-1970.000122 100.000000 -300.000000
-2000.000000 100.000000 -700.000000
-1970.000122 100.000000 -700.000000
1970.000122 100.000000 700.000000
1970.000122 100.000000 300.000000
2000.000000 100.000000 700.000000
2000.000000 100.000000 700.000000
1970.000122 100.000000 300.000000
2000.000000 100.000000 300.000000
1970.000122 100.000000 -300.000000
1970.000122 100.000000 -700.000000
2000.000000 100.000000 -300.000000
2000.000000 100.000000 -300.000000
1970.000122 100.000000 -700.000000
2000.000000 100.000000 -700.000000
3 2 1 0
3 5 4 3
3 8 7 6
3 11 10 9
3 14 13 12
3 17 16 15
3 20 19 18
3 23 22 21
3 26 25 24
3 29 28 27
3 32 31 30
3 35 34 33
3 38 37 36
3 41 40 39
3 44 43 42
3 47 46 45
3 50 49 48
3 53 52 51
3 56 55 54
3 59 58 57
3 62 61 60
3 65 64 63
3 68 67 66
3 71 70 69
3 74 73 72
3 77 76 75
3 80 79 78
3 83 82 81
3 86 85 84
3 89 88 87
3 92 91 90
3 95 94 93
3 98 97 96
3 101 100 99
3 104 103 102
3 107 106 105
3 110 109 108
3 113 112 111
3 116 115 114
3 119 118 117
3 122 121 120
3 125 124 123
3 128 127 126
3 131 130 129
3 134 133 132
3 137 136 135
3 140 139 138
3 143 142 141
3 146 145 144
3 149 148 147
3 152 151 150
3 155 154 153
3 158 157 156
3 161 160 159
3 164 163 162
3 167 166 165
3 170 169 168
3 173 172 171
3 176 175 174
3 179 178 177
3 182 181 180
3 185 184 183
3 188 187 186
3 191 190 189
3 194 193 192
3 197 196 195
3 200 199 198
3 203 202 201
3 206 205 204
3 209 208 207
3 212 211 210
3 215 214 213
3 218 217 216
3 221 220 219
3 224 223 222
3 227 226 225
3 230 229 228
3 233 232 231
3 236 235 234
3 239 238 237
3 242 241 240
3 245 244 243
3 248 247 246
3 251 250 249
3 254 253 252
3 257 256 255
3 260 259 258
3 263 262 261
3 266 265 264
3 269 268 267
3 272 271 270
3 275 274 273
3 278 277 276
3 281 280 279
3 284 283 282
3 287 286 285
3 290 289 288
3 293 292 291
3 296 295 294
3 299 298 297
3 302 301 300
3 305 304 303
3 308 307 306
3 311 310 309
3 314 313 312
3 317 316 315
3 320 319 318
3 323 322 321
3 326 325 324
3 329 328 327
3 332 331 330
3 335 334 333
3 338 337 336
3 341 340 339
3 344 343 342
3 347 346 345
3 350 349 348
3 353 352 351
3 356 355 354
3 359 358 357
3 362 361 360
3 365 364 363
3 368 367 366
3 371 370 369
3 374 373 372
3 377 376 375
3 380 379 378
3 383 382 381
3 386 385 384
3 389 388 387
3 392 391 390
3 395 394 393
3 398 397 396
3 401 400 399
3 404 403 402
3 407 406 405
3 410 409 408
3 413 412 411
3 416 415 414
3 419 418 417
3 422 421 420
3 425 424 423
3 428 427 426
3 431 430 429
3 434 433 432
3 437 436 435
3 440 439 438
3 443 442 441
3 446 445 444
3 449 448 447
3 452 451 450
3 455 454 453
3 458 457 456
3 461 460 459
3 464 463 462
3 467 466 465
3 470 469 468
3 473 472 471
3 476 475 474
3 479 478 477
3 482 481 480
3 485 484 483
3 488 487 486
3 491 490 489
3 494 493 492
3 497 496 495
3 500 499 498
3 503 502 501
3 506 505 504
3 509 508 507
3 512 511 510
3 515 514 513
3 518 517 516
3 521 520 519
3 524 523 522
3 527 526 525
3 530 529 528
3 533 532 531
3 536 535 534
3 539 538 537
3 542 541 540
3 545 544 543
3 548 547 546
3 551 550 549
3 554 553 552
3 557 556 555
3 560 559 558
3 563 562 561
3 566 565 564
3 569 568 567
3 572 571 570
3 575 574 573
3 578 577 576
3 581 580 579
3 584 583 582
3 587 586 585
3 590 589 588
3 593 592 591
3 596 595 594
3 599 598 597
3 602 601 600
3 605 604 603
3 608 607 606
3 611 610 609
3 614 613 612
3 617 616 615
3 620 619 618
3 623 622 621
3 626 625 624
3 629 628 627
3 632 631 630
3 635 634 633
3 638 637 636
3 641 640 639
3 644 643 642
3 647 646 645
3 650 649 648
3 653 652 651
3 656 655 654
3 659 658 657
3 662 661 660
3 665 664 663
3 668 667 666
3 671 670 669
3 674 673 672
3 677 676 675
3 680 679 678
3 683 682 681
3 686 685 684
3 689 688 687
3 692 691 690
3 695 694 693
3 698 697 696
3 701 700 699
3 704 703 702
3 707 706 705
3 710 709 708
3 713 712 711
3 716 715 714
3 719 718 717
3 722 721 720
3 725 724 723
3 728 727 726
3 731 730 729
3 734 733 732
3 737 736 735
3 740 739 738
3 743 742 741
3 746 745 744
3 749 748 747
3 752 751 750
3 755 754 753
3 758 757 756
3 761 760 759
3 764 763 762
3 767 766 765
3 770 769 768
3 773 772 771
3 776 775 774
3 779 778 777
3 782 781 780
3 785 784 783
3 788 787 786
3 791 790 789
3 794 793 792
3 797 796 795
3 800 799 798
3 803 802 801
3 806 805 804
3 809 808 807
3 812 811 810
3 815 814 813
3 818 817 816
3 821 820 819
3 824 823 822
3 827 826 825
3 830 829 828
3 833 832 831
3 836 835 834
3 839 838 837
3 842 841 840
3 845 844 843
3 848 847 846
3 851 850 849
3 854 853 852
3 857 856 855
3 860 859 858
3 863 862 861
3 866 865 864
3 869 868 867
3 872 871 870
3 875 874 873
3 878 877 876
3 881 880 879
3 884 883 882
3 887 886 885
3 890 889 888
3 893 892 891
3 896 895 894
3 899 898 897
3 902 901 900
3 905 904 903
3 908 907 906
3 911 910 909
3 914 913 912
3 917 916 915
3 920 919 918
3 923 922 921
3 926 925 924
3 929 928 927
3 932 931 930
3 935 934 933
3 938 937 936
3 941 940 939
3 944 943 942
3 947 946 945
3 950 949 948
3 953 952 951
3 956 955 954
3 959 958 957
3 962 961 960
3 965 964 963
3 968 967 966
3 971 970 969
3 974 973 972
3 977 976 975
3 980 979 978
3 983 982 981
3 986 985 984
3 989 988 987
3 992 991 990
3 995 994 993
3 998 997 996
3 1001 1000 999
3 1004 1003 1002
3 1007 1006 1005
3 1010 1009 1008
3 1013 1012 1011
